<?xml version="1.0" encoding="UTF-8" standalone="no"?>
<!-- Created with Inkscape (http://www.inkscape.org/) -->

<svg
   xmlns:dc="http://purl.org/dc/elements/1.1/"
   xmlns:cc="http://creativecommons.org/ns#"
   xmlns:rdf="http://www.w3.org/1999/02/22-rdf-syntax-ns#"
   xmlns:svg="http://www.w3.org/2000/svg"
   xmlns="http://www.w3.org/2000/svg"
   xmlns:sodipodi="http://sodipodi.sourceforge.net/DTD/sodipodi-0.dtd"
   xmlns:inkscape="http://www.inkscape.org/namespaces/inkscape"
   version="1.1"
   id="svg2"
   width="682.66669"
   height="682.66669"
   viewBox="0 0 682.66669 682.66669"
   sodipodi:docname="rooster.svg"
   inkscape:export-filename="C:\Users\Alvaro\projects\github\gallu\assets\icons\rooster-48.png"
   inkscape:export-xdpi="6.75"
   inkscape:export-ydpi="6.75"
   inkscape:version="0.92.1 r15371">
  <metadata
     id="metadata8">
    <rdf:RDF>
      <cc:Work
         rdf:about="">
        <dc:format>image/svg+xml</dc:format>
        <dc:type
           rdf:resource="http://purl.org/dc/dcmitype/StillImage" />
      </cc:Work>
    </rdf:RDF>
  </metadata>
  <defs
     id="defs6" />
  <sodipodi:namedview
     pagecolor="#ffffff"
     bordercolor="#666666"
     borderopacity="1"
     objecttolerance="10"
     gridtolerance="10"
     guidetolerance="10"
     inkscape:pageopacity="0"
     inkscape:pageshadow="2"
     inkscape:window-width="1920"
     inkscape:window-height="1017"
     id="namedview4"
     showgrid="false"
     inkscape:zoom="0.97779607"
     inkscape:cx="-80.835109"
     inkscape:cy="264.65149"
     inkscape:window-x="-8"
     inkscape:window-y="-8"
     inkscape:window-maximized="1"
     inkscape:current-layer="svg2" />
  <g
     id="g4489"
     transform="translate(12.293786,41.943504)"
     style="stroke:#000000;stroke-width:12.19999981;stroke-miterlimit:4;stroke-dasharray:none;stroke-opacity:1">
    <path
       style="fill:#000000;fill-opacity:1;stroke:none;stroke-width:12.19999981;stroke-miterlimit:4;stroke-dasharray:none;stroke-opacity:1"
       d="m 391.28065,639.84855 c -8.36168,-3.70581 -15.17407,-12.93079 -20.768,-28.12285 -1.62014,-4.4 -3.45507,-9.37579 -4.07764,-11.0573 -1.12952,-3.05081 -1.14932,-3.04549 -9.31804,2.50178 -9.75986,6.62778 -27.3886,14.9553 -36.09342,17.0499 -7.80831,1.87888 -20.74887,1.94583 -25.94561,0.13423 -7.07542,-2.46651 -8.93563,-7.74464 -7.91466,-22.45684 0.97674,-14.07466 4.77988,-36.84678 8.62692,-51.65535 l 2.46368,-9.48357 -14.50361,5.82984 c -17.84989,7.17492 -38.33199,13.11969 -52.50984,15.2406 -9.30191,1.3915 -11.24663,1.32256 -14.8202,-0.5254 -12.41348,-6.41927 -12.87003,-36.65648 -1.24822,-82.66873 2.44163,-9.66672 4.20416,-17.83658 3.91675,-18.15528 -0.2874,-0.31869 -7.86181,1.00282 -16.832,2.93668 -41.67001,8.98355 -62.76133,11.32158 -71.07328,7.87866 -6.72743,-2.78659 -9.04152,-8.27582 -7.98954,-18.95184 1.48148,-15.03463 6.97166,-32.98299 15.12525,-49.44714 l 7.67434,-15.49643 -15.35645,-0.68742 C 111.046,381.8351 98.915846,378.96961 85.180972,371.97406 72.359663,365.44381 68.60418,361.2035 68.637239,353.29458 c 0.01821,-4.35637 1.300308,-7.45588 5.888481,-14.23556 20.290932,-29.98272 72.83352,-81.34386 141.17437,-138.00001 l 17.69151,-14.66666 -11.97473,-0.94258 c -16.03516,-1.26218 -26.42651,-4.06822 -40.8029,-11.01829 C 143.81711,156.64256 119.35594,123.35909 104.64198,71.059018 98.349026,48.690988 96.744722,36.035539 96.697902,8.3923501 c -0.0408,-24.1122611 0.17948,-26.5571721 3.034544,-33.6739641 3.961524,-9.874873 9.495234,-14.326038 17.810204,-14.326038 8.69159,0 12.79891,3.379329 29.98087,24.666993 24.42436,30.260652 43.40396,47.552836 47.59412,43.362676 1.62328,-1.623276 1.25104,-11.343236 -1.01931,-26.6169729 -1.85718,-12.4941321 -1.08505,-21.2298651 2.2478,-25.4310311 5.48339,-6.912 16.15688,-8.553568 25.67054,-3.94809 3.06786,1.485133 10.90731,7.580176 17.42096,13.544541 18.17809,16.6451491 27.08792,22.4218861 34.58267,22.4218861 3.50653,0 4.04116,-1.295096 5.26744,-12.7598608 1.58705,-14.8376003 9.2604,-23.2333373 21.23861,-23.2380693 7.76129,-0.0031 15.3254,4.29997 27.69304,15.753886 21.28082,19.7085731 28.14618,24.244044 36.69836,24.244044 7.66007,0 10.56738,-2.8272459 13.69024,-13.3132387 4.1925,-14.0775983 11.35994,-20.0059963 22.08342,-18.2658163 21.83089,3.542667 81.52837,51.248309 103.90423,83.032273 22.20352,31.53918 28.39883,58.403352 21.26588,92.213442 l -0.9142,4.33334 h 11.74815 c 30.03117,0 56.517,14.64461 74.42204,41.14961 5.01093,7.41774 6.01542,12.89174 3.55376,19.36639 -2.20038,5.78744 -7.01611,7.07564 -29.39062,7.86193 -21.29974,0.74854 -32.60734,2.5821 -51.73389,8.38884 l -11.06723,3.35996 10.02022,9.35776 c 19.0909,17.8288 34.67881,47.71232 38.48368,67.70084 1.53934,8.0868 -0.82612,13.52366 -7.19979,16.54816 -6.22265,2.95284 -9.95397,2.12867 -20.84648,-4.60456 -8.33892,-5.15472 -29.64979,-21.12893 -35.20132,-21.12893 -1.94264,0 -2.5066,0.60951 -1.93711,2.09358 2.18831,5.70264 8.7654,37.42225 10.10017,48.71052 4.23895,35.84905 -8.58424,62.60081 -36.14178,75.39908 -3.40462,1.58117 -9.43495,3.601 -13.40075,4.48851 l -7.21053,1.61364 -1.70939,12.73706 c -4.14208,30.86347 -27.78776,137.06315 -37.5391,168.59905 -5.01909,16.23175 -8.20096,19.71577 -17.93641,19.63972 -3.67416,-0.0287 -8.48029,-0.84993 -10.68029,-1.82496 z m 26.53482,-132.12286 c 6.09288,-28.95983 12.79851,-64.49055 12.79851,-67.81479 0,-0.46853 -1.11938,-0.85188 -2.48752,-0.85188 -5.40207,0 -21.99661,-9.81746 -29.8222,-17.64305 -14.50039,-14.50039 -20.70491,-33.30899 -18.24395,-55.30542 3.73766,-33.40789 28.91342,-83.22312 44.69112,-88.43023 13.81333,-4.55881 23.48694,10.63731 14.54482,22.84819 -15.4851,21.14559 -24.13196,38.5068 -28.72966,57.68355 -4.80114,20.02533 -2.60992,31.66811 7.93699,42.17191 9.42123,9.38273 14.50686,11.34172 29.44374,11.34172 11.23628,0 13.54338,-0.43049 20.43041,-3.81223 8.85663,-4.34886 14.22224,-10.77653 17.67595,-21.17467 4.34022,-13.06721 1.21237,-35.45322 -10.98296,-78.60504 -2.82276,-9.98799 -4.45503,-18.23336 -3.98234,-20.11669 1.51239,-6.02586 5.92334,-10.08918 11.89579,-10.95827 12.686,-4.01647 56.77268,39.55092 55.30368,27.66836 -1.469,-11.88256 -33.93671,-41.95651 -46.03871,-48.98825 -11.2265,-6.52304 -14.16849,-10.10507 -14.16849,-17.25088 0,-7.05927 3.60675,-10.91155 15.54191,-16.59995 20.60118,-9.81869 43.40548,-16.59893 70.92164,-21.08664 l 6.59688,-1.07591 -8.59688,-4.31779 c -16.42851,-8.25124 -36.45836,-8.8728 -56.69722,-1.75941 -13.43052,4.72045 -21.65857,3.14461 -25.80052,-4.94132 -2.44961,-4.78212 -0.3133,-11.90557 5.62708,-18.76335 8.92623,-10.30473 13.38603,-21.49426 14.04291,-35.23329 1.15144,-24.08344 -10.16177,-47.357722 -36.14089,-74.351429 -12.54292,-13.032769 -31.84367,-29.064381 -46.8969,-38.95355 l -11.93531,-7.840873 -3.11665,6.132554 c -7.49861,14.754827 -19.48259,21.399579 -38.34605,21.26173 -15.78856,-0.115379 -25.45,-5.216128 -48.48983,-25.600173 l -7.95015,-7.0337289 -0.94273,4.3670619 c -6.72295,31.14308 -44.3114,33.139946 -75.44913,4.008193 l -4.83181,-4.520546 -0.59603,11.773042 c -0.43325,8.558103 -1.37886,13.285258 -3.46281,17.31074 -8.25755,15.950844 -28.02885,20.935497 -46.40183,11.698617 -9.3674,-4.709388 -28.14849,-22.27342 -41.20903,-38.538581 l -9.33333,-11.6234289 -0.40755,5.412648 c -0.59249,7.8690029 3.33466,36.0938919 7.07518,50.8501499 15.35819,60.587704 49.11401,95.153284 95.92717,98.228324 10.55705,0.69346 14.03841,0.31149 26.76605,-2.93678 8.04681,-2.05365 19.72838,-5.73524 25.95904,-8.18129 6.23064,-2.44604 13.04,-4.44736 15.13189,-4.44736 11.50872,0 18.29272,13.12293 11.34807,21.95163 -1.57676,2.00452 -11.62676,10.59229 -22.33334,19.08394 -57.12095,45.30402 -108.52647,90.11389 -144.12301,125.6311 -27.44547,27.38431 -37.62175,39.51328 -34.6782,41.3325 6.78516,4.19345 46.53908,6.05854 66.00137,3.09652 10.43309,-1.58786 16.5306,-0.24662 20.30153,4.46561 5.94936,7.43444 3.7945,14.03336 -9.12364,27.93959 -8.7787,9.45018 -18.93552,25.39099 -23.03181,36.14773 -4.01664,10.54756 -5.62636,17.69306 -3.97941,17.66447 6.8661,-0.1192 51.12402,-9.54239 69.36562,-14.76907 19.83259,-5.68253 26.59227,-4.87481 30.97833,3.70167 2.34936,4.59393 1.89556,7.10685 -5.06395,28.04148 -7.53075,22.65299 -13.07403,46.23554 -14.31283,60.89055 -0.78536,9.29075 -0.64908,10.15563 1.60022,10.15563 4.63737,0 37.2716,-11.87715 58.44428,-21.27066 24.2026,-10.73777 28.01541,-11.33047 34.05244,-5.29345 5.4722,5.47221 5.38665,11.02591 -0.46304,30.06024 -7.33699,23.87383 -14.98256,60.50387 -12.62863,60.50387 4.84491,0 24.89851,-12.26343 35.93398,-21.97479 9.98273,-8.78495 15.60569,-11.11056 21.42905,-8.86289 6.56124,2.53245 12.62537,12.22976 18.70852,29.91726 l 3.12268,9.07958 6.95397,-28.41291 c 3.82468,-15.62711 10.23607,-44.01292 14.24752,-63.07959 z m -31.8796,-289.81998 c -17.4399,-7.92279 -21.67797,-31.23952 -8.13585,-44.76136 11.01932,-11.00284 26.79352,-11.51751 38.16376,-1.24518 14.48992,13.09078 11.50032,36.51337 -5.7582,45.11363 -8.12373,4.04823 -16.63481,4.36136 -24.26971,0.89291 z"
       id="path4493"
       inkscape:connector-curvature="0"
       sodipodi:nodetypes="cscssssscsscscsscscssssscssscssscsscssscsssssccsssssccsssssssccssscsssssssssscsscczsssscsscsssscssscsccccssccssssscssccssscsssssscssscscsscsscc" />
    <path
       style="fill:none;fill-opacity:1;stroke:none;stroke-width:12.19999981;stroke-miterlimit:4;stroke-dasharray:none;stroke-opacity:1"
       d="m 403.33335,679.45621 c -8.36168,-3.70581 -15.17407,-12.93079 -20.768,-28.12285 -1.62014,-4.4 -3.45507,-9.37579 -4.07764,-11.0573 -1.12952,-3.05081 -1.14932,-3.04549 -9.31804,2.50178 -9.75986,6.62778 -27.3886,14.9553 -36.09342,17.0499 -7.80831,1.87888 -20.74887,1.94583 -25.94561,0.13423 -7.07542,-2.46651 -8.93563,-7.74464 -7.91466,-22.45684 0.97674,-14.07466 4.77988,-36.84678 8.62692,-51.65535 l 2.46368,-9.48357 -14.50361,5.82984 c -17.84989,7.17492 -38.33199,13.11969 -52.50984,15.2406 -9.30191,1.3915 -11.24663,1.32256 -14.8202,-0.5254 -12.41348,-6.41927 -12.87003,-36.65648 -1.24822,-82.66873 2.44163,-9.66672 4.20416,-17.83658 3.91675,-18.15528 -0.2874,-0.31869 -7.86181,1.00282 -16.832,2.93668 -41.67001,8.98355 -62.76133,11.32158 -71.07328,7.87866 -6.72743,-2.78659 -9.04152,-8.27582 -7.98954,-18.95184 1.48148,-15.03463 6.97166,-32.98299 15.12525,-49.44714 l 7.67434,-15.49643 -15.35645,-0.68742 c -19.59108,-0.87699 -31.72123,-3.74248 -45.456097,-10.73803 -12.821312,-6.53025 -16.576795,-10.77056 -16.543736,-18.67948 0.01821,-4.35637 1.300308,-7.45588 5.888481,-14.23556 20.290932,-29.98272 72.833512,-81.34386 141.174362,-138.00001 l 17.69151,-14.66666 -11.97473,-0.94258 c -16.03516,-1.26218 -26.42651,-4.06822 -40.8029,-11.01829 -36.79686,-17.78892 -61.25803,-51.07239 -75.97199,-103.37247 -6.29295,-22.36803 -7.89725,-35.023479 -7.94407,-62.666668 -0.0408,-24.112261 0.17948,-26.557172 3.03454,-33.673964 C 115.74667,4.4511648 121.28038,0 129.59535,0 c 8.69159,0 12.79891,3.3793288 29.98087,24.666993 24.42436,30.260652 43.40396,47.552836 47.59412,43.362676 1.62328,-1.623276 1.25104,-11.343236 -1.01931,-26.616973 -1.85718,-12.494132 -1.08505,-21.229865 2.2478,-25.431031 5.48339,-6.9120004 16.15688,-8.5535679 25.67054,-3.94809 3.06786,1.485133 10.90731,7.580176 17.42096,13.544541 18.17809,16.645149 27.08792,22.421886 34.58267,22.421886 3.50653,0 4.04116,-1.295096 5.26744,-12.759861 1.58705,-14.8376 9.2604,-23.233337 21.23861,-23.238069 7.76129,-0.0031 15.3254,4.29997 27.69304,15.753886 21.28082,19.708573 28.14618,24.244044 36.69836,24.244044 7.66007,0 10.56738,-2.827246 13.69024,-13.313239 4.1925,-14.077598 11.35994,-20.005996 22.08342,-18.265816 21.83089,3.542667 81.52837,51.248309 103.90423,83.032273 22.20352,31.53918 28.39883,58.40336 21.26588,92.21345 l -0.9142,4.33334 h 11.74815 c 30.03117,0 56.517,14.64461 74.42204,41.14961 5.01093,7.41774 6.01542,12.89174 3.55376,19.36639 -2.20038,5.78744 -7.01611,7.07564 -29.39062,7.86193 -21.29974,0.74854 -32.60734,2.5821 -51.73389,8.38884 l -11.06723,3.35996 10.02022,9.35776 c 19.0909,17.8288 31.61069,38.50795 35.41556,58.49647 1.53934,8.0868 -0.82612,13.52366 -7.19979,16.54816 -6.22265,2.95284 -9.95397,2.12867 -20.84648,-4.60456 -8.33892,-5.15472 -26.58167,-11.92456 -32.1332,-11.92456 -1.94264,0 -2.5066,0.60951 -1.93711,2.09358 2.18831,5.70264 8.7654,37.42225 10.10017,48.71052 4.23895,35.84905 -8.58424,62.60081 -36.14178,75.39908 -3.40462,1.58117 -9.43495,3.601 -13.40075,4.48851 l -7.21053,1.61364 -1.70939,12.73706 c -4.14208,30.86347 -27.78776,137.06315 -37.5391,168.59905 -5.01909,16.23175 -8.20096,19.71577 -17.93641,19.63972 -3.67416,-0.0287 -8.48029,-0.84993 -10.68029,-1.82496 z m 26.53482,-132.12286 c 6.09288,-28.95983 12.79851,-64.49055 12.79851,-67.81479 0,-0.46853 -1.11938,-0.85188 -2.48752,-0.85188 -5.40207,0 -21.99661,-9.81746 -29.8222,-17.64305 -14.50039,-14.50039 -20.70491,-33.30899 -18.24395,-55.30542 3.73766,-33.40789 28.91342,-83.22312 44.69112,-88.43023 13.81333,-4.55881 23.48694,10.63731 14.54482,22.84819 -15.4851,21.14559 -24.13196,38.5068 -28.72966,57.68355 -4.80114,20.02533 -2.60992,31.66811 7.93699,42.17191 9.42123,9.38273 14.50686,11.34172 29.44374,11.34172 11.23628,0 13.54338,-0.43049 20.43041,-3.81223 8.85663,-4.34886 14.22224,-10.77653 17.67595,-21.17467 4.34022,-13.06721 1.21237,-35.45322 -10.98296,-78.60504 -2.82276,-9.98799 -4.45503,-18.23336 -3.98234,-20.11669 1.51239,-6.02586 5.92334,-10.08918 11.89579,-10.95827 4.76001,-0.69267 24.8954,1.57005 36.89493,4.14607 5.83085,1.25174 -15.52796,-18.43422 -27.62996,-25.46596 -11.2265,-6.52304 -14.16849,-10.10507 -14.16849,-17.25088 0,-7.05927 3.60675,-10.91155 15.54191,-16.59995 20.60118,-9.81869 43.40548,-16.59893 70.92164,-21.08664 l 6.59688,-1.07591 -8.59688,-4.31779 c -16.42851,-8.25124 -36.45836,-8.8728 -56.69722,-1.75941 -13.43052,4.72045 -21.65857,3.14461 -25.80052,-4.94132 -2.44961,-4.78212 -0.3133,-11.90557 5.62708,-18.76335 8.92623,-10.30473 13.38603,-21.49426 14.04291,-35.23329 1.15144,-24.08344 -10.16177,-47.35773 -36.14089,-74.351437 -12.54292,-13.032769 -31.84367,-29.064381 -46.8969,-38.95355 l -11.93531,-7.840873 -3.11665,6.132554 c -7.49861,14.754827 -19.48259,21.399579 -38.34605,21.26173 -15.78856,-0.115379 -25.45,-5.216128 -48.48983,-25.600173 l -7.95015,-7.033729 -0.94273,4.367062 c -6.72295,31.14308 -44.3114,33.139946 -75.44913,4.008193 l -4.83181,-4.520546 -0.59603,11.773042 c -0.43325,8.558103 -1.37886,13.285258 -3.46281,17.31074 C 225.35331,96.821877 205.58201,101.80653 187.20903,92.56965 177.84163,87.860262 159.06054,70.29623 146,54.031069 l -9.33333,-11.623429 -0.40755,5.412648 c -0.59249,7.869003 3.33466,36.093892 7.07518,50.85015 15.35819,60.587712 49.11401,95.153292 95.92717,98.228332 10.55705,0.69346 14.03841,0.31149 26.76605,-2.93678 8.04681,-2.05365 19.72838,-5.73524 25.95904,-8.18129 6.23064,-2.44604 13.04,-4.44736 15.13189,-4.44736 11.50872,0 18.29272,13.12293 11.34807,21.95163 -1.57676,2.00452 -11.62676,10.59229 -22.33334,19.08394 -57.12095,45.30402 -108.52647,90.11389 -144.12301,125.6311 -27.44547,27.38431 -37.62175,39.51328 -34.6782,41.3325 6.78516,4.19345 46.53908,6.05854 66.00137,3.09652 10.43309,-1.58786 16.5306,-0.24662 20.30153,4.46561 5.94936,7.43444 3.7945,14.03336 -9.12364,27.93959 -8.7787,9.45018 -18.93552,25.39099 -23.03181,36.14773 -4.01664,10.54756 -5.62636,17.69306 -3.97941,17.66447 6.8661,-0.1192 51.12402,-9.54239 69.36562,-14.76907 19.83259,-5.68253 26.59227,-4.87481 30.97833,3.70167 2.34936,4.59393 1.89556,7.10685 -5.06395,28.04148 -7.53075,22.65299 -13.07403,46.23554 -14.31283,60.89055 -0.78536,9.29075 -0.64908,10.15563 1.60022,10.15563 4.63737,0 37.2716,-11.87715 58.44428,-21.27066 24.2026,-10.73777 28.01541,-11.33047 34.05244,-5.29345 5.4722,5.47221 5.38665,11.02591 -0.46304,30.06024 -7.33699,23.87383 -14.98256,60.50387 -12.62863,60.50387 4.84491,0 24.89851,-12.26343 35.93398,-21.97479 9.98273,-8.78495 15.60569,-11.11056 21.42905,-8.86289 6.56124,2.53245 12.62537,12.22976 18.70852,29.91726 l 3.12268,9.07958 6.95397,-28.41291 c 3.82468,-15.62711 10.23607,-44.01292 14.24752,-63.07959 z m -31.8796,-289.81998 c -17.4399,-7.92279 -21.67797,-31.23952 -8.13585,-44.76136 11.01932,-11.00284 26.79352,-11.51751 38.16376,-1.24518 14.48992,13.09078 11.50032,36.51337 -5.7582,45.11363 -8.12373,4.04823 -16.63481,4.36136 -24.26971,0.89291 z"
       id="path4491"
       inkscape:connector-curvature="0" />
  </g>
  <path
     style="fill:#ffffff;fill-opacity:1;stroke:none;stroke-width:12.47703934;stroke-miterlimit:4;stroke-dasharray:none;stroke-opacity:1"
     d="m 406.81844,633.77477 c -3.20105,-10.35372 -10.29917,-24.2723 -14.41847,-28.2729 -7.43631,-7.22206 -13.1735,-6.01158 -28.1525,5.93986 -13.8522,11.05241 -32.62601,22.39734 -34.2975,20.72585 -1.53966,-1.53966 5.87256,-35.62866 13.31727,-61.24655 2.34464,-8.06811 3.5942,-14.51061 3.5942,-18.53113 0,-5.79567 -0.23678,-6.39997 -3.97051,-10.13372 -6.22023,-6.22022 -8.88506,-5.81171 -35.25687,5.40478 -27.72829,11.79343 -56.86489,22.03006 -58.38308,20.51187 -2.97499,-2.97499 3.97883,-37.42161 14.0852,-69.77278 3.07509,-9.84356 5.88845,-19.20933 6.25193,-20.81281 0.92607,-4.0853 -1.06251,-9.33934 -4.69006,-12.39173 -4.75921,-4.00461 -11.65865,-3.52482 -35.68021,2.4812 -22.54526,5.63692 -54.30318,12.3146 -58.56612,12.3146 -3.48432,0 -3.53253,-1.47543 -0.3534,-10.81499 4.95738,-14.56363 12.10027,-26.4141 25.53606,-42.36584 13.06229,-15.50828 14.51828,-21.77413 6.78277,-29.18965 -3.05535,-2.92896 -3.45645,-3.02153 -12.551,-2.89664 -5.16713,0.071 -18.82927,0.24162 -30.3603,0.37923 -25.78853,0.30779 -41.93104,-1.63446 -41.93104,-5.04508 0,-2.55864 12.08363,-16.24964 31.70212,-35.91918 37.34747,-37.44462 77.41228,-72.78763 135.51066,-119.54018 28.0787,-22.5953 34.82177,-28.79796 36.3539,-33.44035 2.73435,-8.28516 -4.40601,-17.75268 -13.38898,-17.75268 -1.78674,0 -9.98588,2.27801 -18.22031,5.06224 -8.23442,2.78423 -19.80398,6.29039 -25.71012,7.79147 -9.66332,2.45599 -11.96715,2.67237 -23.01094,2.16115 -36.95544,-1.71062 -64.82355,-22.03156 -83.86393,-61.15214 -11.0293,-22.66091 -20.88385,-65.074628 -19.76152,-85.052967 l 0.33193,-5.908494 6.13625,7.910072 c 8.86261,11.424553 28.43011,30.859066 37.25333,37.000152 9.01267,6.272947 15.27507,8.342327 25.06181,8.281555 11.70045,-0.07265 20.41708,-4.406016 26.08976,-12.970184 3.32024,-5.01266 4.80451,-10.96156 5.75111,-23.050442 l 0.62183,-7.941042 5.26326,4.732123 c 15.66135,14.080899 34.70449,21.456998 48.92798,18.95158 13.03638,-2.296312 20.61584,-8.722794 24.74401,-20.979954 l 2.22496,-6.606243 7.65418,6.704805 c 11.92421,10.445194 22.39323,17.925878 29.63487,21.175737 5.38027,2.414523 8.47306,3.065869 16.36119,3.44571 20.33653,0.979273 33.4197,-5.888143 41.01982,-21.53149 1.29316,-2.661699 2.64428,-4.839453 3.0025,-4.839453 1.24639,0 22.01555,14.625176 31.66777,22.299722 12.79922,10.176749 34.9947,32.420343 42.3966,42.488503 12.5688,17.09623 18.75891,32.43565 19.66562,48.73238 0.87438,15.71593 -2.83465,27.51994 -12.59973,40.09869 -7.76259,9.99927 -9.5293,17.42541 -5.39573,22.68037 5.18087,6.58643 11.17108,7.17245 26.62372,2.60463 20.47333,-6.05193 40.04554,-5.15126 55.02244,2.532 l 6.56742,3.36915 -10.1469,1.79904 c -22.80326,4.04301 -45.56338,11.01962 -63.32772,19.41169 -13.87592,6.55514 -17.89739,10.51341 -17.89739,17.6161 0,6.50867 2.80212,10.52539 11.00946,15.7815 3.78836,2.42613 9.18902,6.2363 12.00147,8.46704 7.69019,6.0996 24.62392,22.87448 29.78661,29.50719 4.64006,5.96126 8.13537,12.80888 7.07795,13.8663 -0.96877,0.96877 -7.6698,-2.67958 -16.3715,-8.91341 -31.6827,-22.69719 -38.37271,-24.79367 -47.59483,-14.91505 -3.87297,4.1487 -3.30118,10.81264 2.89689,33.7617 8.55521,31.67668 9.67727,37.94866 9.78854,54.71489 0.093,14.00916 -0.0513,15.14871 -2.60966,20.60548 -1.48946,3.17692 -4.52966,7.59778 -6.75601,9.82414 -2.22636,2.22635 -6.76045,5.37979 -10.07577,7.00763 -5.68487,2.79132 -6.7552,2.95824 -18.81169,2.93372 -14.88697,-0.0303 -18.68053,-1.27752 -27.14016,-8.92318 -13.5085,-12.20872 -15.47206,-26.9116 -7.06911,-52.93265 4.34209,-13.44599 10.63049,-25.85063 20.61152,-40.65884 6.37072,-9.45181 7.84951,-12.40459 8.23819,-16.44964 1.09311,-11.37624 -8.85686,-18.58468 -19.47396,-14.10827 -13.23968,5.58217 -34.74461,45.25122 -41.54396,76.63407 -2.57846,11.90108 -2.81745,27.91116 -0.55963,37.49032 3.21701,13.64867 11.83879,26.62678 23.47201,35.33173 7.50947,5.61921 18.95871,11.76694 21.91421,11.76694 4.35466,0 4.24623,1.06054 -4.70499,46.02186 -5.50277,27.63993 -17.11598,79.7637 -22.64221,101.62535 l -2.80985,11.11569 z m 16.43501,-374.78536 c 15.57236,-7.53846 19.41781,-29.55206 7.5229,-43.0654 -5.77931,-6.56563 -12.25143,-9.48817 -21.01836,-9.491 -6.02067,-0.002 -8.03037,0.47925 -12.63945,3.02632 -6.95119,3.84139 -12.04276,9.77108 -13.97401,16.27428 -7.38593,24.87116 16.5067,44.68144 40.10892,33.2558 z"
     id="path4495"
     inkscape:connector-curvature="0"
     inkscape:export-xdpi="72"
     inkscape:export-ydpi="72" />
</svg>
